<svg xmlns="http://www.w3.org/2000/svg" viewBox="0 0 160 220" fill="none">
  <defs>
    <linearGradient id="milkGrad" x1="40" y1="10" x2="120" y2="200" gradientUnits="userSpaceOnUse">
      <stop stop-color="#FFFDF8"/>
      <stop offset="0.45" stop-color="#F4E7D4"/>
      <stop offset="1" stop-color="#E4CDAF"/>
    </linearGradient>
    <linearGradient id="milkShine" x1="55" y1="30" x2="90" y2="140" gradientUnits="userSpaceOnUse">
      <stop stop-color="#fff" stop-opacity="0.75"/>
      <stop offset="1" stop-color="#fff" stop-opacity="0"/>
    </linearGradient>
    <filter id="milkBlur" x="-20%" y="-10%" width="140%" height="130%">
      <feGaussianBlur stdDeviation="1.2"/>
    </filter>
  </defs>
  <path filter="url(#milkBlur)" d="M78 8 C92 40 108 70 118 110 C126 142 120 175 98 198 C84 212 62 214 48 198 C34 180 36 145 48 112 C60 78 68 42 78 8Z" fill="url(#milkGrad)" opacity="0.95"/>
  <path d="M82 28 C90 55 100 85 106 115 C110 138 104 160 90 175" stroke="url(#milkShine)" stroke-width="10" stroke-linecap="round" opacity="0.55"/>
  <ellipse cx="86" cy="198" rx="28" ry="10" fill="#F7E7D0" opacity="0.45"/>
</svg>
